<svg width="328" height="325" viewBox="0 0 328 325" fill="none" xmlns="http://www.w3.org/2000/svg">
<g filter="url(#filter0_d_6_9726)">
<path d="M239.978 235.161L230.466 241.728C224.564 245.802 217.523 248.42 209.659 249.109L140.924 255.12C134.172 255.713 127.457 254.822 121.073 252.714L120.82 252.631C120.82 252.631 120.806 252.627 120.802 252.627C120.797 252.627 120.793 252.622 120.793 252.622L120.59 252.558C120.59 252.558 120.549 252.544 120.535 252.539C120.522 252.535 120.512 252.53 120.499 252.526L120.361 252.48H120.356C120.329 252.471 120.292 252.457 120.264 252.448C120.246 252.448 120.228 252.434 120.205 252.429L120.127 252.402C120.127 252.402 120.099 252.392 120.085 252.388C120.081 252.388 120.067 252.383 120.062 252.379L119.897 252.328C119.897 252.328 119.842 252.31 119.819 252.301C119.805 252.296 119.787 252.291 119.768 252.282L119.667 252.25C119.667 252.25 119.649 252.245 119.64 252.241C119.631 252.236 119.617 252.232 119.603 252.227L119.511 252.2C119.511 252.2 119.474 252.186 119.461 252.181C119.433 252.172 119.396 252.163 119.373 252.154C119.346 252.144 119.309 252.131 119.281 252.121C100.707 245.981 85.1411 229.007 80.966 208L66.3647 134.521C66.0064 132.703 65.7446 130.902 65.5655 129.12C65.4369 127.793 65.3542 126.475 65.322 125.171C65.3037 124.523 65.2945 123.88 65.3037 123.237C65.3037 123.104 65.3128 122.975 65.3128 122.842C65.322 122.452 65.3312 122.061 65.345 121.676C65.3634 121.331 65.3771 120.982 65.3909 120.638C65.3955 120.541 65.4001 120.449 65.4047 120.353C65.4093 120.165 65.4185 119.976 65.4277 119.788C66.0799 104.536 73.2083 91.3225 84.544 83.4965L94.0517 76.9336C79.4962 86.9824 71.8809 105.895 76.0009 126.626L90.5977 200.109C96.3896 229.25 123.181 250.941 150.432 248.558L219.167 242.541C227.03 241.857 234.072 239.239 239.978 235.161Z" fill="url(#paint0_linear_6_9726)"/>
<path d="M259.053 198.869C259.044 198.966 259.039 199.062 259.03 199.159C258.979 199.756 258.915 200.344 258.846 200.931C258.832 201.046 258.819 201.156 258.805 201.271C258.727 201.859 258.644 202.447 258.548 203.03C258.534 203.113 258.52 203.191 258.506 203.269C258.405 203.852 258.3 204.426 258.18 205.001C258.171 205.037 258.166 205.079 258.157 205.115C258.033 205.699 257.895 206.277 257.753 206.851C257.73 206.952 257.703 207.049 257.68 207.15C257.537 207.706 257.381 208.257 257.22 208.803C257.188 208.904 257.161 209.005 257.128 209.106C256.958 209.662 256.784 210.213 256.591 210.755C256.573 210.81 256.55 210.865 256.531 210.92C256.343 211.453 256.145 211.981 255.943 212.505C255.92 212.565 255.897 212.624 255.874 212.679C255.663 213.208 255.438 213.731 255.208 214.25C255.167 214.347 255.126 214.443 255.08 214.535C254.85 215.045 254.611 215.545 254.363 216.041C254.317 216.129 254.276 216.216 254.23 216.303C253.973 216.813 253.707 217.323 253.426 217.819C253.413 217.846 253.394 217.874 253.38 217.901C253.105 218.388 252.825 218.87 252.531 219.348C252.489 219.417 252.448 219.486 252.407 219.55C252.117 220.019 251.814 220.482 251.506 220.942C251.447 221.029 251.387 221.116 251.332 221.203C251.024 221.654 250.703 222.104 250.377 222.54C250.326 222.609 250.271 222.678 250.22 222.747C249.881 223.201 249.531 223.647 249.173 224.083C249.169 224.088 249.164 224.092 249.159 224.101C248.797 224.542 248.425 224.969 248.048 225.397C247.988 225.465 247.928 225.53 247.869 225.599C247.506 226.003 247.129 226.398 246.753 226.784C246.679 226.857 246.61 226.931 246.537 227.004C246.151 227.394 245.761 227.776 245.356 228.148C245.301 228.198 245.251 228.244 245.196 228.295C244.869 228.593 244.534 228.882 244.199 229.172C244.034 229.314 243.868 229.457 243.698 229.599C243.395 229.852 243.087 230.095 242.775 230.338C242.623 230.458 242.476 230.577 242.325 230.692C241.879 231.027 241.429 231.358 240.97 231.679C240.952 231.693 240.929 231.707 240.91 231.725C240.433 232.056 239.941 232.377 239.445 232.69C239.289 232.786 239.128 232.883 238.972 232.979C238.627 233.19 238.283 233.397 237.929 233.595C237.736 233.705 237.544 233.81 237.351 233.916C237.02 234.095 236.689 234.274 236.354 234.444C236.152 234.55 235.95 234.651 235.748 234.752C235.403 234.922 235.054 235.083 234.705 235.243C234.512 235.331 234.319 235.422 234.122 235.51C233.713 235.689 233.295 235.859 232.877 236.024C232.739 236.079 232.601 236.139 232.459 236.194C231.899 236.41 231.334 236.612 230.76 236.805C230.622 236.851 230.484 236.892 230.346 236.933C229.905 237.076 229.464 237.214 229.014 237.342C228.807 237.402 228.596 237.457 228.385 237.512C227.999 237.618 227.613 237.714 227.223 237.811C226.993 237.866 226.764 237.916 226.534 237.967C226.148 238.054 225.762 238.132 225.372 238.206C225.142 238.252 224.913 238.293 224.678 238.334C224.26 238.408 223.833 238.472 223.411 238.536C223.209 238.564 223.006 238.601 222.804 238.624C222.175 238.706 221.541 238.78 220.903 238.835L152.172 244.847C151.57 244.897 150.964 244.934 150.362 244.966C150.248 244.971 150.128 244.98 150.013 244.984C149.43 245.007 148.851 245.021 148.268 245.021C148.158 245.021 148.047 245.021 147.937 245.021C147.363 245.021 146.794 245.007 146.224 244.98C146.187 244.98 146.151 244.98 146.114 244.98C145.521 244.952 144.929 244.911 144.341 244.86C144.221 244.851 144.102 244.842 143.983 244.828C143.404 244.773 142.83 244.713 142.256 244.635C142.159 244.622 142.063 244.608 141.962 244.594C141.41 244.521 140.864 244.438 140.317 244.341C140.253 244.332 140.193 244.323 140.129 244.309C139.55 244.208 138.976 244.093 138.402 243.969C138.283 243.942 138.163 243.919 138.044 243.891C137.474 243.767 136.909 243.63 136.344 243.487C136.262 243.464 136.179 243.441 136.096 243.418C135.564 243.276 135.035 243.129 134.507 242.973C134.424 242.95 134.346 242.927 134.264 242.899C133.703 242.729 133.152 242.546 132.596 242.357C132.482 242.316 132.362 242.275 132.247 242.238C131.692 242.04 131.14 241.838 130.589 241.627C130.53 241.604 130.465 241.577 130.405 241.554C129.886 241.347 129.372 241.136 128.858 240.915C128.766 240.874 128.674 240.837 128.587 240.8C128.049 240.566 127.516 240.323 126.988 240.07C126.878 240.02 126.768 239.965 126.658 239.909C126.12 239.648 125.583 239.381 125.055 239.101C125.018 239.083 124.981 239.06 124.944 239.041C124.435 238.77 123.929 238.49 123.429 238.206C123.332 238.15 123.236 238.095 123.139 238.04C122.629 237.746 122.124 237.443 121.624 237.131C121.49 237.048 121.362 236.966 121.229 236.883C120.985 236.731 120.746 236.575 120.503 236.414C120.356 236.318 120.209 236.222 120.062 236.125C119.818 235.964 119.58 235.799 119.336 235.634C119.198 235.537 119.061 235.445 118.927 235.349C118.656 235.161 118.39 234.963 118.119 234.77C118.018 234.697 117.917 234.623 117.816 234.55C117.448 234.279 117.086 234.003 116.727 233.723C116.654 233.668 116.58 233.608 116.507 233.549C116.222 233.324 115.937 233.099 115.653 232.869C115.529 232.768 115.405 232.667 115.281 232.561C115.051 232.368 114.817 232.175 114.592 231.983C114.458 231.868 114.325 231.753 114.192 231.638C113.971 231.45 113.756 231.257 113.54 231.064C113.407 230.945 113.278 230.83 113.145 230.71C112.92 230.508 112.699 230.302 112.479 230.095C112.364 229.985 112.244 229.879 112.13 229.764C111.859 229.502 111.588 229.241 111.321 228.974C111.262 228.915 111.197 228.855 111.138 228.795C110.811 228.469 110.49 228.138 110.168 227.803C110.081 227.711 109.989 227.615 109.902 227.518C109.672 227.275 109.443 227.032 109.218 226.784C109.103 226.66 108.993 226.531 108.878 226.407C108.68 226.187 108.483 225.962 108.285 225.736C108.166 225.603 108.051 225.465 107.936 225.328C107.743 225.103 107.555 224.878 107.367 224.653C107.256 224.519 107.142 224.382 107.031 224.244C106.829 223.996 106.632 223.748 106.439 223.5C106.347 223.38 106.251 223.266 106.159 223.146C105.874 222.779 105.589 222.407 105.314 222.03C105.314 222.03 105.309 222.021 105.304 222.021C105.029 221.649 104.758 221.272 104.491 220.891C104.404 220.767 104.321 220.643 104.234 220.519C104.05 220.257 103.871 219.996 103.697 219.729C103.6 219.582 103.499 219.435 103.403 219.288C103.237 219.04 103.077 218.792 102.916 218.54C102.82 218.388 102.723 218.232 102.627 218.08C102.466 217.823 102.31 217.566 102.154 217.309C102.066 217.162 101.974 217.015 101.887 216.868C101.713 216.574 101.543 216.276 101.373 215.977C101.308 215.862 101.244 215.752 101.18 215.637C100.95 215.224 100.725 214.81 100.505 214.393C100.459 214.31 100.417 214.227 100.376 214.145C100.201 213.809 100.027 213.469 99.857 213.13C99.7835 212.983 99.71 212.831 99.6411 212.684C99.5033 212.404 99.3701 212.124 99.2369 211.839C99.1588 211.674 99.0853 211.508 99.0072 211.343C98.8832 211.072 98.7592 210.796 98.6398 210.521C98.5663 210.356 98.4928 210.186 98.4193 210.016C98.2953 209.726 98.1759 209.437 98.0565 209.148C97.9922 208.996 97.9279 208.84 97.8682 208.688C97.7258 208.33 97.588 207.972 97.4502 207.614C97.418 207.526 97.3813 207.439 97.3492 207.352C97.1838 206.902 97.023 206.452 96.8669 206.002C96.8255 205.878 96.7842 205.749 96.7429 205.625C96.6326 205.294 96.5224 204.964 96.4168 204.633C96.3616 204.468 96.3111 204.298 96.2606 204.128C96.1687 203.834 96.0815 203.535 95.9942 203.242C95.9437 203.062 95.8931 202.883 95.8426 202.7C95.7599 202.406 95.6819 202.112 95.6038 201.813C95.5579 201.634 95.5119 201.46 95.466 201.28C95.3833 200.959 95.3098 200.642 95.2317 200.321C95.195 200.169 95.1583 200.013 95.1215 199.861C95.0159 199.388 94.9102 198.911 94.8184 198.433L80.217 124.955C80.1205 124.477 80.0333 123.999 79.9506 123.522C79.923 123.37 79.9001 123.214 79.8771 123.062C79.822 122.736 79.7715 122.415 79.7255 122.089C79.698 121.91 79.675 121.731 79.652 121.551C79.6107 121.253 79.574 120.95 79.5372 120.651C79.5142 120.468 79.4959 120.284 79.4729 120.105C79.4408 119.802 79.4086 119.503 79.381 119.2C79.3673 119.03 79.3489 118.856 79.3351 118.686C79.3076 118.346 79.2846 118.001 79.2616 117.661C79.2524 117.533 79.2433 117.409 79.2341 117.28C79.2065 116.816 79.1881 116.353 79.1744 115.889C79.1744 115.788 79.1744 115.691 79.1698 115.595C79.1606 115.232 79.156 114.869 79.1514 114.506C79.1514 114.346 79.1514 114.18 79.1514 114.019C79.1514 113.721 79.156 113.422 79.1652 113.128C79.1652 112.986 79.1744 112.844 79.179 112.706C79.1973 112.086 79.2249 111.466 79.2662 110.851C79.2662 110.782 79.2754 110.717 79.28 110.653C79.3213 110.061 79.3765 109.468 79.4408 108.88C79.4499 108.802 79.4545 108.724 79.4637 108.646C79.5326 108.044 79.6107 107.447 79.698 106.85C79.7163 106.735 79.7347 106.621 79.7531 106.501C79.8449 105.913 79.946 105.33 80.0608 104.751C80.0792 104.66 80.0976 104.568 80.1159 104.471C80.2308 103.888 80.3594 103.309 80.4972 102.74C80.5018 102.712 80.5109 102.68 80.5155 102.653C80.6579 102.069 80.8095 101.491 80.9748 100.917C81.0024 100.811 81.0346 100.71 81.0621 100.604C81.2229 100.049 81.3928 99.502 81.5719 98.9555C81.6041 98.8544 81.6408 98.7534 81.6776 98.6478C81.8659 98.092 82.0634 97.5363 82.2701 96.9898C82.2839 96.953 82.2977 96.9209 82.3114 96.8842C82.5181 96.3514 82.734 95.8278 82.9545 95.3043C82.9912 95.2216 83.0234 95.1435 83.0555 95.0609C83.2806 94.5419 83.5194 94.0275 83.7674 93.5177C83.818 93.4167 83.8639 93.3156 83.9144 93.2192C84.1624 92.7094 84.4242 92.2088 84.6906 91.7128C84.7274 91.6439 84.7641 91.5796 84.8009 91.5107C85.0673 91.0285 85.3383 90.5463 85.623 90.0778C85.6506 90.0319 85.6782 89.986 85.7057 89.94C85.9997 89.4532 86.3028 88.9756 86.6151 88.5071C86.6748 88.4198 86.7346 88.328 86.7943 88.2407C87.102 87.7815 87.4189 87.3268 87.745 86.8813C87.8002 86.8032 87.8599 86.7251 87.9196 86.6471C88.2641 86.1832 88.6085 85.7239 88.9714 85.2785C88.9714 85.2785 88.9714 85.2739 88.976 85.2693C89.3342 84.8238 89.7063 84.3875 90.0829 83.9558C90.1472 83.8823 90.2069 83.8134 90.2712 83.7399C90.6341 83.3312 91.0107 82.927 91.3919 82.532C91.4654 82.454 91.5389 82.3805 91.6124 82.3024C92.0028 81.9028 92.3978 81.5125 92.8066 81.1267C92.8479 81.0853 92.8939 81.0486 92.9352 81.0118C93.3302 80.6444 93.7344 80.2816 94.1432 79.928C94.1983 79.8821 94.2534 79.8315 94.3085 79.7856C94.7311 79.4274 95.1583 79.0783 95.5992 78.7339C95.6865 78.665 95.7691 78.6007 95.8564 78.5318C96.2927 78.1965 96.7337 77.8659 97.1884 77.549C97.2619 77.4984 97.3308 77.4479 97.4043 77.3974C97.859 77.0805 98.3183 76.7728 98.7868 76.4743C98.8143 76.4559 98.8373 76.4375 98.8649 76.4238C99.3471 76.1206 99.834 75.8267 100.33 75.542C100.417 75.4914 100.509 75.4409 100.596 75.3904C101.079 75.1194 101.57 74.8577 102.062 74.6005C102.154 74.5545 102.25 74.5086 102.342 74.4581C102.856 74.2009 103.371 73.9529 103.899 73.7141C103.931 73.7003 103.963 73.6865 103.995 73.6727C104.51 73.4431 105.029 73.2273 105.557 73.016C105.64 72.9838 105.722 72.9471 105.805 72.915C106.333 72.7083 106.871 72.5154 107.408 72.3317C107.514 72.2949 107.624 72.2582 107.729 72.2261C108.276 72.0423 108.827 71.8724 109.388 71.7117C109.461 71.6887 109.539 71.6703 109.613 71.652C110.159 71.5004 110.71 71.3534 111.271 71.2248C111.33 71.2111 111.386 71.1973 111.445 71.1835C112.024 71.0503 112.607 70.9309 113.195 70.8207C113.305 70.7977 113.42 70.7794 113.531 70.7564C114.109 70.6508 114.697 70.5589 115.285 70.4762C115.391 70.4625 115.492 70.4487 115.597 70.4349C116.217 70.3522 116.842 70.2833 117.471 70.2282L186.202 64.2164C186.648 64.1797 187.093 64.1475 187.539 64.12C188.26 64.0786 188.976 64.0557 189.693 64.0465C189.739 64.0465 189.785 64.0465 189.835 64.0465C191.25 64.0373 192.66 64.097 194.065 64.2164C194.663 64.2669 195.255 64.3266 195.848 64.4001C196.785 64.5149 197.717 64.6619 198.649 64.8364C199.297 64.9558 199.945 65.0844 200.588 65.2314C200.661 65.2498 200.73 65.2681 200.804 65.2819C201.515 65.4473 202.223 65.6264 202.926 65.8193C203.242 65.9065 203.564 66.003 203.881 66.0994C203.95 66.1178 204.019 66.1362 204.083 66.1591C204.244 66.2096 204.409 66.2647 204.57 66.3153C204.79 66.3842 205.011 66.453 205.231 66.5265C204.634 66.329 204.042 66.1316 203.445 65.9341C197.065 63.8214 190.341 62.9351 183.589 63.5275L114.858 69.5393C114.201 69.599 113.549 69.6725 112.901 69.7552C112.791 69.769 112.685 69.7827 112.575 69.7965C111.96 69.8792 111.349 69.9802 110.743 70.0859C110.623 70.1088 110.508 70.1272 110.389 70.1502C109.773 70.265 109.167 70.389 108.565 70.5314C108.506 70.5451 108.446 70.5635 108.382 70.5773C107.798 70.7151 107.224 70.862 106.655 71.0228C106.577 71.0457 106.499 71.0641 106.42 71.0871C105.837 71.2524 105.263 71.4315 104.693 71.6244C104.583 71.6611 104.473 71.6979 104.358 71.7346C103.793 71.9275 103.233 72.1296 102.682 72.3455C102.594 72.3776 102.512 72.4143 102.424 72.4465C101.873 72.6624 101.331 72.892 100.794 73.1308C100.762 73.1446 100.725 73.1584 100.693 73.1721C100.142 73.4201 99.6043 73.6773 99.067 73.9483C98.9705 73.9988 98.8741 74.0448 98.773 74.0953C98.254 74.3616 97.7442 74.6326 97.2435 74.9174C97.1517 74.9725 97.0552 75.023 96.9633 75.0781C96.4489 75.3766 95.9345 75.6797 95.4338 75.9966C95.4063 76.015 95.3787 76.0334 95.3512 76.0472C94.8597 76.3595 94.382 76.681 93.9043 77.0116C93.8309 77.0621 93.7528 77.1127 93.6793 77.1678C93.2108 77.4984 92.7469 77.8429 92.2922 78.1919C92.2003 78.2608 92.113 78.3297 92.0212 78.4032C91.5665 78.7614 91.1163 79.1243 90.68 79.4963C90.6203 79.5468 90.5652 79.5973 90.5055 79.6478C90.0783 80.0152 89.6603 80.3918 89.247 80.773C89.201 80.8144 89.1597 80.8557 89.1138 80.897C88.6912 81.2966 88.2778 81.7053 87.869 82.1233C87.791 82.2014 87.7129 82.284 87.6348 82.3621C87.2398 82.7754 86.8494 83.1934 86.4682 83.6205C86.4039 83.694 86.3396 83.7721 86.2707 83.8455C85.8757 84.2956 85.4898 84.7457 85.1178 85.2142C85.1178 85.2142 85.1132 85.2187 85.1086 85.2233C84.732 85.6918 84.3691 86.1648 84.0109 86.6517C83.9512 86.7343 83.8869 86.817 83.8271 86.8951C83.4873 87.3589 83.1566 87.832 82.835 88.3142C82.7707 88.4061 82.711 88.5025 82.6513 88.5944C82.3252 89.0858 82.0083 89.5818 81.7051 90.0916C81.6776 90.1421 81.65 90.188 81.6179 90.2385C81.3239 90.73 81.0391 91.2306 80.7636 91.7358C80.7268 91.8047 80.6855 91.8735 80.6487 91.947C80.3686 92.466 80.0976 92.9896 79.8404 93.5223C79.7898 93.628 79.7393 93.729 79.6888 93.8346C79.4316 94.3674 79.1835 94.9001 78.9493 95.4467C78.9126 95.5293 78.8758 95.6166 78.8437 95.6992C78.6094 96.2412 78.3844 96.7877 78.1731 97.3434C78.1593 97.3802 78.1409 97.4169 78.1271 97.4537C77.9113 98.0231 77.7046 98.6018 77.5071 99.1851C77.4703 99.2907 77.4336 99.3964 77.3968 99.5066C77.2085 100.076 77.0294 100.646 76.864 101.224C76.8319 101.33 76.8043 101.44 76.7722 101.546C76.6022 102.143 76.4415 102.749 76.2945 103.36C76.2853 103.392 76.2807 103.42 76.2715 103.452C76.1292 104.049 75.996 104.65 75.8765 105.257C75.8582 105.353 75.8352 105.45 75.8168 105.546C75.6974 106.152 75.5918 106.758 75.4953 107.374C75.4769 107.493 75.4586 107.613 75.4402 107.737C75.3483 108.357 75.2657 108.981 75.1922 109.61C75.183 109.693 75.1738 109.771 75.1692 109.854C75.1049 110.469 75.0498 111.085 75.0038 111.705C74.9993 111.774 74.9947 111.843 74.9901 111.911C74.9487 112.554 74.9166 113.197 74.8982 113.845C74.8982 113.914 74.889 113.983 74.889 114.047C74.889 114.125 74.889 114.208 74.889 114.286C74.8798 114.598 74.8798 114.906 74.8752 115.218C74.8752 115.388 74.8752 115.553 74.8752 115.723C74.8752 116.1 74.8844 116.481 74.8936 116.862C74.8936 116.963 74.8936 117.069 74.8982 117.17C74.912 117.652 74.935 118.135 74.9625 118.621C74.9717 118.755 74.9809 118.883 74.9901 119.016C75.013 119.37 75.036 119.728 75.0682 120.086C75.0819 120.266 75.1003 120.44 75.1187 120.619C75.1462 120.936 75.1784 121.253 75.2151 121.565C75.2381 121.754 75.2565 121.946 75.2794 122.135C75.3162 122.447 75.3575 122.759 75.3989 123.072C75.4264 123.26 75.4494 123.448 75.4769 123.632C75.5275 123.967 75.578 124.307 75.6331 124.642C75.6607 124.803 75.6836 124.964 75.7112 125.125C75.7985 125.621 75.8857 126.121 75.9868 126.622L90.5881 200.1C90.6892 200.601 90.7948 201.097 90.9051 201.593C90.9418 201.753 90.9786 201.91 91.0153 202.07C91.0934 202.406 91.1761 202.741 91.2587 203.076C91.3047 203.26 91.3552 203.448 91.4011 203.632C91.4838 203.94 91.5665 204.247 91.6491 204.555C91.6997 204.743 91.7548 204.932 91.8099 205.12C91.8972 205.428 91.9936 205.735 92.0855 206.043C92.1406 206.218 92.1911 206.397 92.2508 206.571C92.3611 206.916 92.4759 207.26 92.5907 207.605C92.6367 207.738 92.678 207.871 92.7239 208C92.8847 208.473 93.0546 208.946 93.2292 209.409C93.2613 209.501 93.2981 209.589 93.3302 209.676C93.4726 210.052 93.6196 210.429 93.7666 210.806C93.8309 210.966 93.8998 211.127 93.9641 211.288C94.0881 211.591 94.2121 211.89 94.3407 212.188C94.4142 212.363 94.4923 212.537 94.5703 212.716C94.6944 213.001 94.823 213.286 94.9516 213.57C95.0296 213.745 95.1123 213.919 95.1904 214.089C95.3282 214.383 95.4706 214.673 95.6084 214.962C95.6865 215.118 95.7599 215.274 95.838 215.43C96.0172 215.784 96.1963 216.138 96.38 216.487C96.4259 216.574 96.4673 216.661 96.5132 216.749C96.7429 217.185 96.9817 217.617 97.2205 218.048C97.2848 218.168 97.3537 218.283 97.4226 218.402C97.5972 218.714 97.7763 219.022 97.96 219.33C98.0519 219.486 98.1438 219.637 98.2402 219.794C98.401 220.064 98.5663 220.331 98.7317 220.597C98.8327 220.758 98.9338 220.919 99.0348 221.079C99.2002 221.341 99.3701 221.603 99.54 221.86C99.6411 222.016 99.7421 222.168 99.8478 222.324C100.032 222.6 100.22 222.871 100.408 223.146C100.5 223.275 100.587 223.408 100.679 223.537C100.955 223.927 101.235 224.317 101.52 224.703C101.524 224.712 101.529 224.717 101.533 224.726C101.823 225.116 102.117 225.507 102.415 225.888C102.512 226.012 102.608 226.131 102.705 226.255C102.911 226.517 103.118 226.774 103.325 227.032C103.44 227.174 103.559 227.316 103.674 227.454C103.871 227.693 104.069 227.927 104.266 228.161C104.39 228.304 104.51 228.446 104.634 228.589C104.836 228.823 105.043 229.052 105.249 229.287C105.369 229.42 105.483 229.553 105.603 229.682C105.837 229.939 106.071 230.191 106.31 230.444C106.407 230.545 106.499 230.646 106.595 230.747C106.926 231.096 107.266 231.441 107.605 231.78C107.67 231.845 107.739 231.909 107.803 231.973C108.079 232.249 108.359 232.52 108.639 232.791C108.758 232.906 108.882 233.02 109.006 233.135C109.236 233.351 109.466 233.567 109.7 233.778C109.838 233.902 109.976 234.026 110.109 234.15C110.334 234.352 110.559 234.55 110.788 234.747C110.926 234.867 111.069 234.991 111.206 235.11C111.445 235.312 111.684 235.514 111.923 235.712C112.052 235.817 112.18 235.928 112.313 236.033C112.607 236.272 112.901 236.506 113.2 236.741C113.278 236.8 113.356 236.865 113.434 236.929C113.811 237.223 114.187 237.508 114.573 237.788C114.679 237.866 114.784 237.939 114.89 238.017C115.17 238.219 115.45 238.421 115.731 238.624C115.873 238.725 116.02 238.821 116.162 238.922C116.41 239.092 116.663 239.266 116.916 239.432C117.067 239.533 117.223 239.634 117.375 239.735C117.623 239.9 117.876 240.061 118.128 240.222C118.225 240.281 118.317 240.346 118.408 240.406C118.454 240.433 118.496 240.456 118.542 240.484C119.065 240.81 119.589 241.127 120.122 241.434C120.223 241.494 120.324 241.549 120.42 241.604C120.944 241.903 121.472 242.197 122.005 242.477C122.042 242.495 122.078 242.518 122.115 242.536C122.666 242.83 123.227 243.106 123.787 243.382C123.902 243.437 124.017 243.492 124.131 243.547C124.683 243.809 125.238 244.066 125.799 244.309C125.895 244.351 125.992 244.392 126.083 244.433C126.616 244.663 127.158 244.888 127.696 245.099C127.76 245.127 127.824 245.15 127.888 245.177C128.463 245.402 129.037 245.614 129.62 245.816C129.74 245.857 129.864 245.903 129.983 245.944C130.562 246.142 131.14 246.335 131.724 246.509C131.806 246.537 131.889 246.56 131.976 246.583C132.527 246.748 133.079 246.904 133.634 247.051C133.722 247.074 133.804 247.097 133.892 247.12C134.48 247.272 135.072 247.414 135.665 247.543C135.789 247.57 135.913 247.598 136.041 247.625C136.638 247.754 137.24 247.873 137.842 247.979C137.911 247.993 137.975 248.002 138.044 248.011C138.613 248.107 139.183 248.195 139.757 248.273C139.858 248.287 139.959 248.3 140.065 248.314C140.662 248.392 141.264 248.456 141.865 248.512C141.989 248.525 142.118 248.535 142.242 248.544C142.857 248.594 143.473 248.64 144.093 248.668C144.134 248.668 144.171 248.668 144.212 248.668C144.805 248.695 145.402 248.704 145.999 248.709C146.114 248.709 146.229 248.709 146.343 248.709C146.95 248.709 147.556 248.695 148.162 248.672C148.286 248.668 148.406 248.663 148.53 248.654C149.159 248.626 149.788 248.585 150.418 248.53L219.148 242.518C219.814 242.458 220.476 242.385 221.132 242.298C221.344 242.27 221.555 242.233 221.766 242.206C222.212 242.142 222.653 242.073 223.089 241.995C223.333 241.953 223.571 241.907 223.81 241.857C224.219 241.779 224.623 241.696 225.023 241.604C225.262 241.549 225.505 241.499 225.744 241.439C226.153 241.342 226.557 241.237 226.956 241.127C227.177 241.067 227.397 241.012 227.613 240.947C228.082 240.814 228.541 240.672 229 240.52C229.143 240.474 229.29 240.433 229.432 240.383C230.029 240.18 230.622 239.969 231.205 239.744C231.352 239.689 231.494 239.625 231.641 239.57C232.078 239.395 232.51 239.216 232.941 239.032C233.148 238.945 233.345 238.849 233.552 238.757C233.92 238.591 234.282 238.421 234.641 238.242C234.852 238.137 235.063 238.031 235.275 237.925C235.624 237.746 235.968 237.563 236.313 237.374C236.515 237.264 236.717 237.154 236.919 237.039C237.286 236.832 237.645 236.617 238.003 236.396C238.168 236.295 238.338 236.199 238.499 236.093C239.013 235.767 239.528 235.432 240.024 235.087C240.047 235.073 240.065 235.055 240.088 235.041C240.566 234.706 241.034 234.366 241.498 234.012C241.654 233.893 241.81 233.769 241.967 233.645C242.293 233.392 242.614 233.135 242.931 232.873C243.106 232.727 243.28 232.58 243.455 232.428C243.611 232.295 243.772 232.162 243.928 232.028C244.121 231.859 244.305 231.684 244.493 231.514C244.548 231.464 244.603 231.413 244.658 231.363C245.076 230.972 245.485 230.577 245.889 230.168C245.967 230.09 246.041 230.017 246.119 229.939C246.514 229.535 246.904 229.121 247.285 228.703C247.35 228.634 247.409 228.561 247.474 228.492C247.869 228.051 248.255 227.601 248.631 227.142C248.636 227.137 248.64 227.128 248.645 227.123C249.022 226.669 249.384 226.2 249.738 225.727C249.793 225.654 249.848 225.585 249.899 225.511C250.239 225.052 250.569 224.588 250.896 224.115C250.955 224.023 251.02 223.936 251.079 223.844C251.401 223.367 251.713 222.884 252.021 222.393C252.062 222.324 252.104 222.251 252.149 222.182C252.453 221.686 252.751 221.181 253.036 220.671C253.05 220.643 253.068 220.616 253.082 220.588C253.371 220.069 253.647 219.541 253.918 219.004C253.964 218.912 254.01 218.824 254.056 218.733C254.313 218.214 254.561 217.69 254.8 217.162C254.846 217.061 254.887 216.964 254.933 216.863C255.172 216.321 255.406 215.775 255.626 215.219C255.649 215.16 255.672 215.1 255.695 215.04C255.911 214.494 256.113 213.942 256.311 213.387C256.329 213.327 256.352 213.272 256.375 213.212C256.573 212.643 256.756 212.069 256.935 211.49C256.968 211.384 257 211.279 257.032 211.173C257.202 210.604 257.363 210.029 257.51 209.446C257.537 209.345 257.56 209.24 257.588 209.139C257.739 208.537 257.882 207.935 258.01 207.324C258.019 207.283 258.024 207.246 258.033 207.205C258.157 206.608 258.272 206.002 258.378 205.395C258.391 205.313 258.405 205.23 258.419 205.147C258.52 204.541 258.607 203.926 258.69 203.31C258.704 203.196 258.718 203.081 258.736 202.961C258.809 202.346 258.878 201.731 258.929 201.106C258.938 201.005 258.943 200.904 258.952 200.807C259.002 200.155 259.048 199.498 259.076 198.837L259.159 196.95C259.131 197.583 259.09 198.213 259.039 198.837L259.053 198.869Z" fill="url(#paint1_linear_6_9726)"/>
<path d="M205.236 66.5312L205.241 66.5365L205.236 66.5312Z" fill="url(#paint2_linear_6_9726)"/>
<path d="M148.231 247.777C135.573 247.777 122.859 242.794 112.437 233.746C102.002 224.685 94.7906 212.33 92.1312 198.957L77.5299 125.474C74.5765 110.616 77.6309 95.7681 85.903 84.7457C93.4173 74.7336 104.546 68.6024 117.242 67.4956L185.972 61.4838C187.355 61.3643 188.76 61.3 190.157 61.3C202.815 61.3 215.529 66.2831 225.95 75.3307C236.386 84.3921 243.597 96.7418 246.256 110.116L260.858 183.599C263.811 198.456 260.761 213.304 252.485 224.331C244.97 234.348 233.841 240.474 221.151 241.581L152.42 247.593C151.037 247.712 149.632 247.777 148.236 247.777H148.231Z" fill="url(#paint3_linear_6_9726)"/>
<path d="M148.231 246.399C135.903 246.399 123.511 241.535 113.338 232.704C103.132 223.844 96.0768 211.761 93.4817 198.686L78.8803 125.203C76.0051 110.727 78.963 96.2826 87.0055 85.5679C94.2809 75.8682 105.061 69.939 117.361 68.8597L186.092 62.8571C187.433 62.7377 188.802 62.678 190.157 62.678C202.485 62.678 214.877 67.5416 225.05 76.3688C235.256 85.228 242.311 97.3068 244.906 110.382L259.508 183.865C262.383 198.341 259.425 212.79 251.382 223.505C244.107 233.204 233.327 239.133 221.031 240.213L152.301 246.225C150.959 246.344 149.591 246.404 148.236 246.404L148.231 246.399Z" fill="url(#paint4_linear_6_9726)"/>
<path d="M258.153 184.131L243.551 110.653C238.007 82.7295 212.327 61.943 186.211 64.2256L117.481 70.2374C91.3643 72.5199 74.6869 97.0127 80.2353 124.936L94.8367 198.415C100.385 226.338 126.065 247.129 152.177 244.842L220.907 238.83C247.024 236.548 263.701 212.05 258.153 184.127V184.131Z" fill="url(#paint5_linear_6_9726)"/>
<path opacity="0.4" d="M249.261 146.458L89.1691 162.844L81.5859 124.675C78.8622 110.965 81.6411 97.316 89.2104 87.2305C96.0128 78.1645 106.095 72.6211 117.6 71.6153L186.336 65.6035C187.599 65.4933 188.885 65.4336 190.157 65.4336C201.823 65.4336 213.572 70.0584 223.241 78.4538C232.992 86.9136 239.725 98.4458 242.201 110.924L249.261 146.458Z" fill="url(#paint6_linear_6_9726)" style="mix-blend-mode:screen"/>
<g filter="url(#filter1_d_6_9726)">
<path d="M172.175 141.203C172.561 140.308 173.034 139.458 173.576 138.668C173.984 138.076 174.434 137.516 174.917 136.997C175.564 136.308 176.272 135.692 177.025 135.169L174.251 137.084C172.547 138.26 171.091 139.904 170.039 141.81C169.805 142.232 169.589 142.669 169.396 143.119C169.203 143.569 169.033 144.023 168.881 144.492C168.661 145.19 168.491 145.911 168.376 146.641L171.15 144.726C171.339 143.509 171.683 142.324 172.166 141.208L172.175 141.203Z" fill="#9DC2E7"/>
<path d="M204.465 197.345L197.323 161.393C196.009 154.784 190.01 149.636 183.81 150.09C182.386 150.214 181.1 150.586 179.97 151.165C179.593 151.358 179.235 151.574 178.891 151.808L176.116 153.723C177.485 152.777 179.139 152.171 181.036 152.006C187.236 151.551 193.235 156.699 194.548 163.308L201.691 199.26L219.154 197.73L221.928 195.815L204.465 197.345Z" fill="#9DC2E7"/>
<path d="M151.607 135.748L148.833 137.663L161.767 202.75L179.235 201.225L182.009 199.306L164.542 200.835L151.607 135.748Z" fill="#9DC2E7"/>
<path d="M120.907 139.518L118.133 141.433L130.851 205.455L148.319 203.926L151.093 202.011L133.625 203.54L120.907 139.518Z" fill="#9DC2E7"/>
<path d="M124.995 131.251C126.451 131.123 127.778 130.682 128.922 129.998C129.087 129.901 129.248 129.795 129.404 129.69L132.178 127.775C130.925 128.638 129.432 129.194 127.769 129.341C121.986 129.846 116.286 125.23 115.06 119.053C114.403 115.756 115.152 112.665 116.874 110.428C117.448 109.684 118.128 109.032 118.904 108.495L116.13 110.41C113.039 112.545 111.413 116.569 112.29 120.968C113.517 127.146 119.217 131.761 124.999 131.256L124.995 131.251Z" fill="#9DC2E7"/>
<path d="M213.232 152.07C210.472 138.182 197.666 131.398 186.009 132.418C183.763 132.615 181.563 133.097 179.487 133.878C175.257 135.458 171.913 139.84 171.164 144.722L169.079 134.218L151.612 135.747L164.546 200.835L182.013 199.306L174.816 163.088C174.159 159.772 174.816 156.663 176.414 154.311C178.017 151.96 180.557 150.371 183.809 150.09C190.01 149.636 196.008 154.784 197.322 161.393L204.464 197.344L221.927 195.815L213.232 152.07Z" fill="white"/>
<path d="M120.907 139.518L133.626 203.54L151.093 202.011L138.37 137.989L120.907 139.518Z" fill="white"/>
<path d="M127.769 129.336C133.547 128.831 137.249 123.393 136.023 117.216C134.796 111.034 129.096 106.419 123.318 106.924C117.536 107.429 113.834 112.867 115.064 119.048C116.291 125.226 121.991 129.841 127.774 129.336H127.769Z" fill="white"/>
</g>
</g>
<defs>
<filter id="filter0_d_6_9726" x="4.57764e-05" y="4.57764e-05" width="327.259" height="324.6" filterUnits="userSpaceOnUse" color-interpolation-filters="sRGB">
<feFlood flood-opacity="0" result="BackgroundImageFix"/>
<feColorMatrix in="SourceAlpha" type="matrix" values="0 0 0 0 0 0 0 0 0 0 0 0 0 0 0 0 0 0 127 0" result="hardAlpha"/>
<feOffset dy="4"/>
<feGaussianBlur stdDeviation="32.65"/>
<feComposite in2="hardAlpha" operator="out"/>
<feColorMatrix type="matrix" values="0 0 0 0 0.223529 0 0 0 0 0.513726 0 0 0 0 0.807843 0 0 0 0.68 0"/>
<feBlend mode="normal" in2="BackgroundImageFix" result="effect1_dropShadow_6_9726"/>
<feBlend mode="normal" in="SourceGraphic" in2="effect1_dropShadow_6_9726" result="shape"/>
</filter>
<filter id="filter1_d_6_9726" x="97.054" y="101.886" width="129.874" height="118.569" filterUnits="userSpaceOnUse" color-interpolation-filters="sRGB">
<feFlood flood-opacity="0" result="BackgroundImageFix"/>
<feColorMatrix in="SourceAlpha" type="matrix" values="0 0 0 0 0 0 0 0 0 0 0 0 0 0 0 0 0 0 127 0" result="hardAlpha"/>
<feOffset dx="-5" dy="5"/>
<feGaussianBlur stdDeviation="5"/>
<feColorMatrix type="matrix" values="0 0 0 0 0.737255 0 0 0 0 0.737255 0 0 0 0 0.737255 0 0 0 0.6 0"/>
<feBlend mode="normal" in2="BackgroundImageFix" result="effect1_dropShadow_6_9726"/>
<feBlend mode="normal" in="SourceGraphic" in2="effect1_dropShadow_6_9726" result="shape"/>
</filter>
<linearGradient id="paint0_linear_6_9726" x1="152.636" y1="255.3" x2="152.636" y2="76.9336" gradientUnits="userSpaceOnUse">
<stop stop-color="#084D92"/>
<stop offset="1" stop-color="#517AA3"/>
</linearGradient>
<linearGradient id="paint1_linear_6_9726" x1="167.031" y1="248.732" x2="167.031" y2="63.3576" gradientUnits="userSpaceOnUse">
<stop stop-color="#0A66C2"/>
<stop offset="0.5" stop-color="#659FD9"/>
<stop offset="1" stop-color="#A7C8E9"/>
</linearGradient>
<linearGradient id="paint2_linear_6_9726" x1="205.236" y1="66.5365" x2="205.236" y2="66.5312" gradientUnits="userSpaceOnUse">
<stop stop-color="#0A66C2"/>
<stop offset="0.5" stop-color="#659FD9"/>
<stop offset="1" stop-color="#A7C8E9"/>
</linearGradient>
<linearGradient id="paint3_linear_6_9726" x1="169.194" y1="247.777" x2="169.194" y2="61.3" gradientUnits="userSpaceOnUse">
<stop stop-color="#307AC2"/>
<stop offset="1" stop-color="#98B9DA"/>
</linearGradient>
<linearGradient id="paint4_linear_6_9726" x1="169.194" y1="246.399" x2="169.194" y2="62.678" gradientUnits="userSpaceOnUse">
<stop stop-color="#1D70C2"/>
<stop offset="1" stop-color="#82AEDA"/>
</linearGradient>
<linearGradient id="paint5_linear_6_9726" x1="169.194" y1="245.021" x2="169.194" y2="64.0556" gradientUnits="userSpaceOnUse">
<stop stop-color="#0A66C2"/>
<stop offset="1" stop-color="#6CA3DA"/>
</linearGradient>
<linearGradient id="paint6_linear_6_9726" x1="154.878" y1="57.6903" x2="168.489" y2="158.753" gradientUnits="userSpaceOnUse">
<stop offset="0.1" stop-color="white"/>
<stop offset="0.31" stop-color="#B0B0B0"/>
<stop offset="0.57" stop-color="#525252"/>
<stop offset="0.75" stop-color="#171717"/>
<stop offset="0.84"/>
</linearGradient>
</defs>
</svg>
